<svg xmlns="http://www.w3.org/2000/svg" style="display:none;">
    <symbol id="telegram" viewBox="0 0 21 18" fill="none">
        <path d="M1.41512 7.80796C7.69912 5.04346 15.8311 1.67296 16.9536 1.20646C19.8981 -0.0145375 20.8016 0.219462 20.3511 2.92346C20.0276 4.86696 19.0941 11.3015 18.3501 15.3065C17.9086 17.6815 16.9181 17.963 15.3606 16.9355C14.6116 16.441 10.8311 13.941 10.0106 13.354C9.26162 12.819 8.22862 12.1755 9.52412 10.908C9.98512 10.4565 13.0071 7.57096 15.3616 5.32496C15.6701 5.02996 15.2826 4.54546 14.9266 4.78196C11.7531 6.88646 7.35312 9.80746 6.79312 10.188C5.94712 10.7625 5.13462 11.026 3.67612 10.607C2.57412 10.2905 1.49762 9.91296 1.07862 9.76896C-0.534885 9.21496 -0.151885 8.49746 1.41512 7.80796Z" fill="currentColor"/>
    </symbol>
</svg>