<svg width="298" height="159" viewBox="0 0 298 159" fill="none" xmlns="http://www.w3.org/2000/svg">
<mask id="mask0_2058_179" style="mask-type:luminance" maskUnits="userSpaceOnUse" x="0" y="0" width="298" height="159">
<path d="M0 0H298V159H0V0Z" fill="white"/>
</mask>
<g mask="url(#mask0_2058_179)">
<path fill-rule="evenodd" clip-rule="evenodd" d="M76.797 46.7656C72.1252 46.6406 67.4481 46.5 62.771 46.3437C54.7033 46.0833 46.6408 45.7916 38.5783 45.4843L0.0209961 43.9791C12.87 43.4948 25.7241 42.9583 38.5783 42.4739C46.6408 42.1718 54.7033 41.875 62.771 41.6145C68.2866 41.4323 73.8075 41.2708 79.3283 41.1302C80.8127 38.427 82.4585 35.8125 84.2554 33.302L96.1668 37.2604C99.2554 33.401 102.761 29.8958 106.62 26.8073L102.662 14.8958C106.828 11.9166 111.276 9.34892 115.938 7.22913L124.271 16.6145C128.88 14.8177 133.667 13.5364 138.557 12.7864L141.084 0.49475C146.182 -4.04554e-05 151.313 -4.04554e-05 156.412 0.49475L158.938 12.7864C163.828 13.5364 168.615 14.8177 173.224 16.6145L181.557 7.22913C186.219 9.34892 190.667 11.9166 194.834 14.8958L190.875 26.8073C194.735 29.8958 198.24 33.401 201.328 37.2604L213.24 33.302C215.057 35.8489 216.724 38.5 218.229 41.2395C233.839 41.6562 259 42.5573 262.49 42.6823C274.151 43.0989 285.813 43.5625 297.479 43.9791C285.813 44.3958 274.151 44.8593 262.49 45.276C259.188 45.3958 236.485 46.2083 220.828 46.6458C216.719 46.7604 213.094 46.8541 210.438 46.8958C208.959 46.9218 207.485 46.8958 206.005 46.8958H192.698C191.172 44.8385 189.505 42.8854 187.709 41.0625C177.792 30.9791 163.995 24.7239 148.75 24.7239C133.5 24.7239 119.703 30.9791 109.787 41.0625C107.99 42.8854 106.323 44.8385 104.797 46.8958H81.9897C80.2606 46.8541 78.5314 46.8125 76.8022 46.7656H76.797ZM79.3283 117.646C73.8075 117.505 68.2866 117.339 62.771 117.161C54.7033 116.896 46.6408 116.604 38.5783 116.302L0.0209961 114.792C12.87 114.307 25.7241 113.771 38.5783 113.286C46.6408 112.984 54.7033 112.687 62.771 112.427C67.4481 112.276 72.1252 112.135 76.797 112.01C78.5314 111.964 80.2606 111.917 81.9897 111.875C83.1825 111.849 84.3752 111.875 85.5679 111.875H104.797C106.323 113.937 107.99 115.885 109.787 117.714C119.703 127.792 133.5 134.047 148.75 134.047C163.995 134.047 177.792 127.792 187.709 117.714C189.505 115.885 191.172 113.937 192.698 111.875H210.438C213.094 111.922 216.719 112.01 220.828 112.125C236.485 112.568 259.188 113.375 262.49 113.495C274.151 113.911 285.813 114.375 297.479 114.792C285.813 115.208 274.151 115.677 262.49 116.094C259 116.219 233.839 117.115 218.229 117.531C216.724 120.276 215.057 122.927 213.24 125.474L201.328 121.516C198.24 125.37 194.735 128.88 190.875 131.969L194.834 143.88C190.667 146.854 186.219 149.422 181.557 151.542L173.224 142.161C168.615 143.958 163.828 145.24 158.938 145.99L156.412 158.281C151.313 158.776 146.182 158.776 141.084 158.281L138.557 145.99C133.667 145.24 128.88 143.958 124.271 142.161L115.938 151.542C111.276 149.422 106.828 146.854 102.662 143.88L106.62 131.969C102.761 128.88 99.2554 125.37 96.1668 121.516L84.2554 125.474C82.4585 122.958 80.8127 120.349 79.3283 117.646ZM120.162 41.0625C117.823 42.8073 115.656 44.7604 113.677 46.8958H110.886C112.693 44.7916 114.672 42.8385 116.802 41.0625C125.459 33.8333 136.599 29.4843 148.75 29.4843C160.896 29.4843 172.037 33.8333 180.693 41.0625C182.823 42.8385 184.802 44.7916 186.61 46.8958H183.818C181.844 44.7604 179.672 42.8073 177.334 41.0625C169.36 35.0989 159.464 31.5677 148.75 31.5677C138.031 31.5677 128.136 35.0989 120.162 41.0625ZM116.802 117.714C114.672 115.932 112.693 113.979 110.886 111.875H113.677C115.656 114.01 117.823 115.964 120.162 117.714C128.136 123.672 138.031 127.203 148.75 127.203C159.464 127.203 169.36 123.672 177.334 117.714C179.672 115.964 181.844 114.01 183.818 111.875H186.61C184.802 113.979 182.823 115.932 180.693 117.714C172.037 124.937 160.896 129.286 148.75 129.286C136.599 129.286 125.459 124.937 116.802 117.714Z" fill="white"/>
</g>
<mask id="mask1_2058_179" style="mask-type:luminance" maskUnits="userSpaceOnUse" x="33" y="57" width="232" height="59">
<path d="M264.083 57.302H33.4165V115.969H264.083V57.302Z" fill="white"/>
</mask>
<g mask="url(#mask1_2058_179)">
<path d="M35.0825 98.645V63.5616H45.9159C47.6346 63.5616 49.2075 63.6658 50.6242 63.8741C52.0409 64.0825 53.2596 64.4783 54.2909 65.0616C55.3169 65.645 56.1086 66.4887 56.6659 67.5825C57.2179 68.6658 57.4992 70.0825 57.4992 71.8325V82.27C57.4836 83.9679 57.1919 85.3481 56.6242 86.4158C56.0513 87.4731 55.2752 88.2908 54.2909 88.8741C53.3013 89.4471 52.1659 89.8429 50.8742 90.0616C49.5825 90.27 48.1867 90.3741 46.6867 90.3741H46.145V98.645H35.0825ZM45.6034 83.7075H46.2284C46.5304 83.7075 46.7492 83.6346 46.8742 83.4783C47.0096 83.3116 47.0825 82.9991 47.0825 82.5408V72.145C47.0825 71.7023 47.02 71.4054 46.895 71.2491C46.7804 71.0825 46.5461 70.9991 46.1867 70.9991H45.6034V83.7075Z" fill="white"/>
<path d="M58.6592 98.645V63.5616H76.0758V70.8533H69.8883V78.6033H74.7842V83.9158H69.8883V91.5408H76.2008V98.645H58.6592Z" fill="white"/>
<path d="M77.1802 98.645V63.5616H93.201V71.3325H88.2427V98.645H77.1802Z" fill="white"/>
<path d="M106.018 63.5616H115.664L111.226 91.395C110.737 93.3689 110.049 94.9314 109.164 96.0825C108.289 97.2231 107.232 98.0356 105.997 98.52C104.758 98.9887 103.357 99.2283 101.789 99.2283C100.789 99.2283 100.002 99.1971 99.4347 99.145C98.8774 99.1033 98.4243 99.046 98.0806 98.9783C97.7316 98.9054 97.3722 98.8429 96.9972 98.7908L96.3514 91.4991C96.3774 91.5148 96.5649 91.5304 96.9139 91.5408C97.2733 91.5408 97.7056 91.5512 98.2056 91.5616C98.716 91.5773 99.2264 91.5929 99.7264 91.6033C100.237 91.6033 100.685 91.6033 101.06 91.6033C101.445 91.6033 101.685 91.6033 101.768 91.6033C102.211 91.6033 102.56 91.4679 102.81 91.1866C103.06 90.895 103.216 90.5096 103.289 90.02L103.497 88.0616L96.3722 87.895L93.7681 63.5616H104.289L104.185 81.2491L106.018 63.5616Z" fill="white"/>
<path d="M120.572 99.3325C119.556 99.3325 118.76 99.3012 118.176 99.2491C117.603 99.2075 117.145 99.145 116.801 99.0616C116.452 98.9783 116.098 98.9002 115.739 98.8325L115.78 90.77C115.874 90.8116 116.051 90.8429 116.301 90.8533C116.562 90.8689 116.77 90.8741 116.926 90.8741C117.093 90.8741 117.197 90.77 117.239 90.5616C117.291 90.3429 117.327 89.9991 117.343 89.5408L118.26 63.5616H141.176V98.645H130.135V70.7491H128.697L128.114 91.4783C127.973 93.5616 127.583 95.1762 126.947 96.3116C126.322 97.4366 125.473 98.2231 124.405 98.6658C123.348 99.1085 122.072 99.3325 120.572 99.3325Z" fill="white"/>
<path d="M151.759 87.2074V80.0408H165.655V87.2074H151.759Z" fill="white"/>
<path d="M176.207 98.645V63.5616H192.228V71.3325H187.27V98.645H176.207Z" fill="white"/>
<path d="M193.129 98.645V63.5616H203.962C205.681 63.5616 207.254 63.6658 208.671 63.8741C210.087 64.0825 211.306 64.4783 212.337 65.0616C213.363 65.645 214.155 66.4887 214.712 67.5825C215.264 68.6658 215.546 70.0825 215.546 71.8325V82.27C215.53 83.9679 215.238 85.3481 214.671 86.4158C214.098 87.4731 213.322 88.2908 212.337 88.8741C211.348 89.4471 210.212 89.8429 208.921 90.0616C207.629 90.27 206.233 90.3741 204.733 90.3741H204.191V98.645H193.129ZM203.65 83.7075H204.275C204.577 83.7075 204.796 83.6346 204.921 83.4783C205.056 83.3116 205.129 82.9991 205.129 82.5408V72.145C205.129 71.7023 205.066 71.4054 204.941 71.2491C204.827 71.0825 204.592 70.9991 204.233 70.9991H203.65V83.7075Z" fill="white"/>
<path d="M228.622 63.5616H238.268L233.83 91.395C233.341 93.3689 232.653 94.9314 231.768 96.0825C230.893 97.2231 229.836 98.0356 228.601 98.52C227.362 98.9887 225.961 99.2283 224.393 99.2283C223.393 99.2283 222.606 99.1971 222.039 99.145C221.481 99.1033 221.028 99.046 220.685 98.9783C220.336 98.9054 219.976 98.8429 219.601 98.7908L218.955 91.4991C218.981 91.5148 219.169 91.5304 219.518 91.5408C219.877 91.5408 220.31 91.5512 220.81 91.5616C221.32 91.5773 221.83 91.5929 222.33 91.6033C222.841 91.6033 223.289 91.6033 223.664 91.6033C224.049 91.6033 224.289 91.6033 224.372 91.6033C224.815 91.6033 225.164 91.4679 225.414 91.1866C225.664 90.895 225.82 90.5096 225.893 90.02L226.101 88.0616L218.976 87.895L216.372 63.5616H226.893L226.789 81.2491L228.622 63.5616Z" fill="white"/>
<path d="M238.884 98.645V63.5616H262.447V98.645H251.405V70.7491H249.926V98.645H238.884Z" fill="white"/>
</g>
</svg>
